<?xml version="1.0" encoding="utf-8"?>
<!-- Generator: Adobe Illustrator 22.1.0, SVG Export Plug-In . SVG Version: 6.00 Build 0)  -->
<svg version="1.1" id="Layer_1" xmlns="http://www.w3.org/2000/svg" xmlns:xlink="http://www.w3.org/1999/xlink" x="0px" y="0px"
	 viewBox="0 0 1920 1200" style="enable-background:new 0 0 1920 1200;" xml:space="preserve">
<style type="text/css">
	.st0{fill:#333333;}
	.st1{font-family:'Roboto-MediumItalic';}
	.st2{font-size:34.3004px;}
	.st3{font-family:'Roboto-Black';}
	.st4{opacity:0.9;}
	.st5{opacity:0.8;}
	.st6{opacity:0.7;}
	.st7{opacity:0.6;}
	.st8{fill:none;stroke:#333333;stroke-width:3;stroke-miterlimit:10;}
	.st9{fill:#FFFFFF;}
	.st10{fill:#534741;}
</style>
<text transform="matrix(1 0 0 1 940.7192 281.0237)"><tspan x="0" y="0" class="st0 st1 st2">per</tspan><tspan x="48.8" y="0" class="st0 st3 st2"> Collection Run Iteration</tspan></text>
<text transform="matrix(1 0 0 1 940.9697 445.0237)" class="st4"><tspan x="0" y="0" class="st0 st1 st2">per</tspan><tspan x="48.8" y="0" class="st0 st3 st2"> Script</tspan></text>
<text transform="matrix(1 0 0 1 940.6689 610.0237)" class="st5"><tspan x="0" y="0" class="st0 st1 st2">per</tspan><tspan x="48.8" y="0" class="st0 st3 st2"> Environment</tspan></text>
<text transform="matrix(1 0 0 1 940.9697 780.0237)" class="st6"><tspan x="0" y="0" class="st0 st1 st2">per</tspan><tspan x="48.8" y="0" class="st0 st3 st2"> Collection</tspan></text>
<text transform="matrix(1 0 0 1 940.7104 938.0237)" class="st7"><tspan x="0" y="0" class="st0 st1 st2">per</tspan><tspan x="48.8" y="0" class="st0 st3 st2"> Workspace</tspan></text>
<g>
	<polygon class="st0" points="730.3,343.9 713.3,343.9 721.8,335.4 	"/>
	<line class="st8" x1="721.3" y1="370.9" x2="721.3" y2="339.9"/>
</g>
<g>
	<polygon class="st0" points="730.3,508.1 713.3,508.1 721.8,499.6 	"/>
	<line class="st8" x1="721.3" y1="535.1" x2="721.3" y2="504.1"/>
</g>
<g>
	<polygon class="st0" points="730.3,672.4 713.3,672.4 721.8,663.9 	"/>
	<line class="st8" x1="721.3" y1="699.4" x2="721.3" y2="668.4"/>
</g>
<g>
	<polygon class="st0" points="730.3,836.6 713.3,836.6 721.8,828.1 	"/>
	<line class="st8" x1="721.3" y1="863.6" x2="721.3" y2="832.6"/>
</g>
<g class="st7">
	<g>
		<rect x="558.3" y="887" class="st9" width="327" height="82"/>
		<path class="st10" d="M882.3,890v76h-321v-76H882.3 M888.3,884h-333v88h333V884L888.3,884z"/>
	</g>
	<text transform="matrix(1 0 0 1 672.1293 938.0237)" class="st0 st3 st2">Global</text>
</g>
<g class="st4">
	<g>
		<path class="st10" d="M882.3,397.2v76h-321v-76H882.3 M888.3,391.2h-333v88h333V391.2L888.3,391.2z"/>
	</g>
	<text transform="matrix(1 0 0 1 679.9843 445.2737)" class="st0 st3 st2">Local</text>
</g>
<g>
	<g>
		<path class="st10" d="M882.3,233v76h-321v-76H882.3 M888.3,227h-333v88h333V227L888.3,227z"/>
	</g>
	<text transform="matrix(1 0 0 1 686.4575 281.0237)" class="st0 st3 st2">Data</text>
</g>
<g class="st5">
	<g>
		<path class="st10" d="M882.3,561.5v76h-321v-76H882.3 M888.3,555.5h-333v88h333V555.5L888.3,555.5z"/>
	</g>
	<text transform="matrix(1 0 0 1 623.3251 609.5237)" class="st0 st3 st2">Environment</text>
</g>
<g class="st6">
	<g>
		<path class="st10" d="M882.3,725.8v76h-321v-76H882.3 M888.3,719.8h-333v88h333V719.8L888.3,719.8z"/>
	</g>
	<text transform="matrix(1 0 0 1 643.1718 773.7737)" class="st0 st3 st2">Collection</text>
</g>
</svg>
