<?xml version="1.0" encoding="utf-8"?>
<!-- Generator: Adobe Illustrator 22.1.0, SVG Export Plug-In . SVG Version: 6.00 Build 0)  -->
<svg version="1.1" id="Layer_1" xmlns="http://www.w3.org/2000/svg" xmlns:xlink="http://www.w3.org/1999/xlink" x="0px" y="0px"
	 viewBox="0 0 1671.9 644.3" style="enable-background:new 0 0 1671.9 644.3;" xml:space="preserve">
<style type="text/css">
	.st0{fill:#FFFFFF;stroke:#000000;stroke-width:4;stroke-linecap:round;stroke-linejoin:round;stroke-miterlimit:10;}
	.st1{font-family:'Roboto-Black';}
	.st2{font-size:290.068px;}
	.st3{letter-spacing:-17;}
	.st4{letter-spacing:-29;}
	.st5{font-size:141.9749px;}
	.st6{letter-spacing:-7;}
</style>
<g>
	<path class="st0" d="M1349.8,508.9c147.4,0,294.8-68.9,294.8-183.8c0-117.1-58.6-161.8-134.7-161.8c-76.2,0-24.2,141.2-24.2,212.4
		l-133.2-52.4c0-82.7,74.7-189.4,157.4-189.4c82.7,0,160.1,53.4,160.1,189.4c0,133.4-160.1,213.4-320.2,213.4V508.9z"/>
	<path class="st0" d="M949.6,294.1l-17.8-8.4c-21.5-10.2-40-26-53.3-45.7l-35.6-52.6h-77.4l32.5,53c12,19.6,20.3,41.3,24.5,63.9
		l9.9,54c8.5,46.2,34.1,87.5,71.6,115.7l48.3,36.2L949.6,294.1z"/>
	<path class="st0" d="M1431.1,162.1c-37.5-27-53.4-50.6-53.4-80h-160.1h-160.1c0,29.5-15.9,53.1-53.4,80
		c-78.1,56.2-106.7,112.7-106.7,214.1c0,185.6,143.3,265.9,320.2,266.1c176.9-0.2,320.2-80.6,320.2-266.1
		C1537.9,274.7,1509.2,218.3,1431.1,162.1z"/>
	<ellipse class="st0" cx="1216.4" cy="84" rx="160.1" ry="40.7"/>
	<ellipse class="st0" cx="1216.4" cy="81.4" rx="132.1" ry="27.3"/>
	<path class="st0" d="M1217.7,2c-29.5,0-53.4,23.9-53.4,53.4c0,7.6,1.6,14.8,4.5,21.4c13.2,3.3,29.7,5.3,47.5,5.3
		c19.3,0,36.9-2.3,50.6-6.1c2.7-6.3,4.1-13.3,4.1-20.6C1271.1,25.9,1247.2,2,1217.7,2z"/>
</g>
<text transform="matrix(1 0 0 1 0 372.5508)"><tspan x="0" y="0" class="st1 st2 st3">4</tspan><tspan x="150.6" y="0" class="st1 st2 st4">1</tspan><tspan x="289.5" y="0" class="st1 st2">8</tspan></text>
<text transform="matrix(1 0 0 1 0 528.6836)"><tspan x="0" y="0" class="st1 st5">I</tspan><tspan x="42.8" y="0" class="st1 st5 st6">’</tspan><tspan x="70.2" y="0" class="st1 st5">m a </tspan><tspan x="338.5" y="0" class="st1 st5 st3">T</tspan><tspan x="410.6" y="0" class="st1 st5">eapot</tspan></text>
</svg>
